:SAMPLES-PER-SECOND 30
:FULLY-SPECIFIED
:DEGREES
301
root  35.14613054 36.50197307 -14.87150568 9.830068588 0.2553704381 3.558079958
lowerback  -7.369609833 0.5068020225 1.287039638
upperback  -3.567610025 0.313786 -2.596430063
thorax  0.4712159932 -0.008868589997 -3.379820108
lowerneck  -16.72380066 0.6438360214 0.7528449893
upperneck  14.7468996 -0.5677859783 5.691840172
head  7.305970192 0.2228879929 1.668609977
lclavicle  0 -4.497500157e-015 -2.743230041e-014
lhumerus  -42.43249893 21.35899925 74.35910034
lradius  -0.09352170676 -6.507048965e-006 29.46050262
lwrist  4.824992743e-007 -3.790274832e-007 -25.37439919
lhand  -4.408758328e-031 -36.7806015 -10.70950031
lfingers  90 7.125020027 -90
lthumb  94.76737377 -25.54891691 100.9444684
rclavicle  0 -4.497500157e-015 -2.743230041e-014
rhumerus  -51.9957962 -38.5544014 -53.98920441
rradius  -5.16745672e-007 2.214343908e-008 36.82730103
rwrist  1.380293725e-006 2.528095422e-007 -144.7369995
rhand  -1.770394641e-031 4.234189987 -5.052420139
rfingers  -90 -7.125020027 -90
rthumb  -83.84801239 -10.66646252 -59.78585138
rfemur  -13.4704504 14.43579292 12.79003811
rtibia  -1.266687036 0.07611633092 21.82259178
rfoot  -0.8549866676 -19.84093285 -38.94984818
rtoes  3.899464943 19.63145705 -101.4689094
lfemur  -10.80525589 -18.14665985 -19.28348351
ltibia  1.759557724 0.4750926793 16.20265579
lfoot  0.9404438138 -27.22685432 35.29139328
ltoes  -8.552300206 -18.14728783 -115.7728985
302
root  35.1470707 36.5021623 -14.86928895 9.846950531 0.2181202471 3.55376935
lowerback  -7.351360321 0.5170850158 1.298300147
upperback  -3.558120012 0.3286789954 -2.586469889
thorax  0.4719580114 -0.0005417990033 -3.374680042
lowerneck  -16.78389931 0.6607329845 0.7663649917
upperneck  14.82830048 -0.5548899174 5.687749863
head  7.342710018 0.2315090001 1.662019968
lclavicle  0 -4.497500157e-015 -2.743230041e-014
lhumerus  -42.39030075 21.18260002 74.51010132
lradius  -0.09300197661 -6.507048965e-006 29.51989746
lwrist  4.824992743e-007 -3.790274832e-007 -25.13960075
lhand  -4.408758328e-031 -36.7806015 -10.71360016
lfingers  90 7.125020027 -90
lthumb  94.76822899 -25.55304549 100.9447832
rclavicle  0 -4.497500157e-015 -2.743230041e-014
rhumerus  -52.75899887 -39.34809875 -52.92449951
rradius  -5.16745672e-007 2.214343908e-008 35.89339828
rwrist  1.380293725e-006 2.528095422e-007 -143.8500061
rhand  -1.770540587e-031 4.297510147 -5.141640186
rfingers  -90 -7.125020027 -90
rthumb  -83.876969 -10.59218524 -59.7321692
rfemur  -13.48217201 14.42233372 12.77859402
rtibia  -1.251438379 0.03978970647 21.81139946
rfoot  -0.8632903099 -19.93727303 -38.93294525
rtoes  3.909500135 19.62953681 -101.4987802
lfemur  -10.81102276 -18.16466904 -19.28447533
ltibia  1.764390826 0.4551116228 16.20289803
lfoot  0.9439093471 -27.17790794 35.31967545
ltoes  -8.571482709 -18.13847423 -115.8345018
303
root  35.14889394 36.4997263 -14.8658407 9.857056618 0.1603933722 3.543520212
lowerback  -7.335029602 0.5421420336 1.303349614
upperback  -3.551110029 0.3628070056 -2.594249964
thorax  0.4725550115 0.01686489955 -3.382980108
lowerneck  -16.8458004 0.6807529926 0.8103730083
upperneck  14.91180038 -0.5444659591 5.674930096
head  7.380539894 0.2397300005 1.658800006
lclavicle  0 -4.497500157e-015 -2.743230041e-014
lhumerus  -42.34009933 20.99340057 74.62670135
lradius  -0.09248011559 -6.507048965e-006 29.56739807
lwrist  4.824992743e-007 -3.790274832e-007 -24.97599983
lhand  -4.408073895e-031 -36.76869965 -10.77880001
lfingers  90 7.125020027 -90
lthumb  94.77638389 -25.61741962 100.9380582
rclavicle  0 -4.497500157e-015 -2.743230041e-014
rhumerus  -53.50899887 -40.03690338 -52.00239563
rradius  -5.16745672e-007 2.214343908e-008 35.16059875
rwrist  1.380293725e-006 2.528095422e-007 -142.677002
rhand  -1.771450211e-031 4.672679901 -5.356979847
rfingers  -90 -7.125020027 -90
rthumb  -83.88870216 -10.42393946 -59.3843171
rfemur  -13.47975063 14.42034912 12.76953602
rtibia  -1.233425975 0.02045181394 21.77608109
rfoot  -0.8346602321 -19.97602272 -38.86548233
rtoes  3.918253235 19.62785768 -101.5248371
lfemur  -10.83541298 -18.0587368 -19.26890182
ltibia  1.754047394 0.4927091599 16.23481941
lfoot  0.9768076539 -27.2794323 35.32938385
ltoes  -8.581588086 -18.1338213 -115.8669662
304
root  35.14977102 36.49835061 -14.86098222 9.882257462 0.126582846 3.554093599
lowerback  -7.290899754 0.5575580001 1.337069511
upperback  -3.540290117 0.3838379979 -2.592489958
thorax  0.4609499872 0.02807660028 -3.398610115
lowerneck  -16.93000031 0.6959879994 0.8250859976
upperneck  15.00119972 -0.5403789878 5.692979813
head  7.424570084 0.2464880049 1.664330006
lclavicle  0 -4.497500157e-015 -2.743230041e-014
lhumerus  -42.30360031 20.82799911 74.73999786
lradius  -0.09195663035 -6.507048965e-006 29.61750031
lwrist  4.824992743e-007 -3.790274832e-007 -24.8519001
lhand  -4.40767154e-031 -36.76169968 -10.78899956
lfingers  90 7.125020027 -90
lthumb  94.7752099 -25.62760531 100.9314674
rclavicle  0 -4.497500157e-015 -2.743230041e-014
rhumerus  -54.27700043 -40.70859909 -51.09859848
rradius  -5.16745672e-007 2.214343908e-008 34.59970093
rwrist  1.380293725e-006 2.528095422e-007 -141.7830048
rhand  -1.770696595e-031 4.364170074 -5.403140068
rfingers  -90 -7.125020027 -90
rthumb  -83.99354727 -10.36950537 -59.69118608
rfemur  -13.49115467 14.39957809 12.74143791
rtibia  -1.22505331 -0.02484557964 21.75668907
rfoot  -0.8420214057 -20.05818748 -38.85666656
rtoes  3.893699518 19.63255794 -101.4517493
lfemur  -10.88180733 -18.05531311 -19.27539253
ltibia  1.749818683 0.4748215675 16.26967049
lfoot  0.9816262126 -27.25934792 35.31885147
ltoes  -8.567271135 -18.14041139 -115.8209741
